<mxfile host="app.diagrams.net" modified="2024-07-20T21:20:12.122Z" agent="Mozilla/5.0 (Windows NT 10.0; Win64; x64) AppleWebKit/537.36 (KHTML, like Gecko) Chrome/126.0.0.0 Safari/537.36" version="24.7.2" etag="4rxGQZHDmkKdkl9qzFwT" type="github">
  <diagram name="Page-1" id="Hp6jff_vpi80dohZ1l5y">
    <mxGraphModel>
      <root>
        <mxCell id="0" />
        <mxCell id="1" parent="0" />
        <mxCell id="2" value="Base de Données&#xa;Hébergé sur PlanetHoster" style="whiteSpace=wrap;strokeWidth=2;verticalAlign=top;" vertex="1" parent="1">
          <mxGeometry y="169" width="185" height="205" as="geometry" />
        </mxCell>
        <mxCell id="3" value="Base de Données" style="ellipse;aspect=fixed;strokeWidth=2;whiteSpace=wrap;" vertex="1" parent="1">
          <mxGeometry x="25" y="204" width="135" height="135" as="geometry" />
        </mxCell>
        <mxCell id="4" value="Serveur Web&#xa;Hébergement du Site&#xa;Hébergé sur PlanetHoster" style="whiteSpace=wrap;strokeWidth=2;verticalAlign=top;" vertex="1" parent="1">
          <mxGeometry x="220" y="32" width="184" height="307" as="geometry" />
        </mxCell>
        <mxCell id="5" value="Serveur Web" style="ellipse;aspect=fixed;strokeWidth=2;whiteSpace=wrap;" vertex="1" parent="1">
          <mxGeometry x="260" y="185" width="105" height="105" as="geometry" />
        </mxCell>
        <mxCell id="6" value="Machine Virtuelle (VM) - Keycloak&#xa;Hébergé sur Azure" style="whiteSpace=wrap;strokeWidth=2;verticalAlign=top;" vertex="1" parent="1">
          <mxGeometry x="-29" width="242" height="149" as="geometry" />
        </mxCell>
        <mxCell id="7" value="Keycloak" style="ellipse;aspect=fixed;strokeWidth=2;whiteSpace=wrap;" vertex="1" parent="1">
          <mxGeometry x="53" y="35" width="79" height="79" as="geometry" />
        </mxCell>
        <mxCell id="8" value="" style="curved=1;startArrow=none;endArrow=block;exitX=1;exitY=0.5;entryX=0.26;entryY=0;" edge="1" parent="1" source="7" target="5">
          <mxGeometry relative="1" as="geometry">
            <Array as="points">
              <mxPoint x="235" y="74" />
            </Array>
          </mxGeometry>
        </mxCell>
        <mxCell id="9" value="" style="curved=1;startArrow=none;endArrow=block;exitX=0;exitY=0.82;entryX=1;entryY=0.59;" edge="1" parent="1" source="5" target="3">
          <mxGeometry relative="1" as="geometry">
            <Array as="points">
              <mxPoint x="235" y="288" />
              <mxPoint x="185" y="288" />
            </Array>
          </mxGeometry>
        </mxCell>
        <mxCell id="10" value="" style="curved=1;startArrow=none;endArrow=block;exitX=1;exitY=0.33;entryX=0;entryY=0.52;" edge="1" parent="1" source="3" target="5">
          <mxGeometry relative="1" as="geometry">
            <Array as="points">
              <mxPoint x="185" y="240" />
              <mxPoint x="235" y="240" />
            </Array>
          </mxGeometry>
        </mxCell>
      </root>
    </mxGraphModel>
  </diagram>
</mxfile>
